<svg xmlns="http://www.w3.org/2000/svg" xmlns:xlink="http://www.w3.org/1999/xlink" xmlns:a="http://ns.adobe.com/AdobeSVGViewerExtensions/3.0/" x="0px" y="0px" width="50px" height="50px" viewBox="-0.9 -0.858 50 50" xml:space="preserve"><defs></defs><path fill="none" stroke="#191831" stroke-width="2" stroke-linecap="round" stroke-linejoin="round" d="M39.254,34.519 c0,0.918-0.737,1.662-1.649,1.662H2.649C1.739,36.181,1,35.437,1,34.519v-7.757c0-0.918,0.739-1.66,1.649-1.66h34.955 c0.912,0,1.649,0.742,1.649,1.66V34.519z"></path><path fill="none" stroke="#191831" stroke-width="2" stroke-linecap="round" stroke-linejoin="round" d="M39.254,45.623 c0,0.918-0.737,1.66-1.649,1.66H2.649c-0.91,0-1.649-0.742-1.649-1.66v-7.757c0-0.919,0.739-1.662,1.649-1.662h34.955 c0.912,0,1.649,0.743,1.649,1.662V45.623z"></path><line fill="none" stroke="#191831" stroke-width="2" stroke-linecap="round" stroke-linejoin="round" x1="16.913" y1="30.641" x2="34.333" y2="30.641"></line><circle fill="none" stroke="#191831" stroke-width="2" stroke-linecap="round" stroke-linejoin="round" cx="7.294" cy="30.686" r="1.552"></circle><line fill="none" stroke="#191831" stroke-width="2" stroke-linecap="round" stroke-linejoin="round" x1="16.913" y1="41.833" x2="34.333" y2="41.833"></line><circle fill="none" stroke="#191831" stroke-width="2" stroke-linecap="round" stroke-linejoin="round" cx="7.294" cy="41.878" r="1.552"></circle><line fill="none" stroke="#191831" stroke-width="2" stroke-linecap="round" stroke-linejoin="round" x1="13.745" y1="25.102" x2="13.745" y2="47.283"></line><path fill="none" stroke="#191831" stroke-width="2" stroke-linecap="round" stroke-linejoin="round" d="M34.333,15.625 c0,0,2.46-2.326,5.65-2.326c2.928,0,5.286,2.76,5.286,2.76s1.93,2.293,1.93,5.22c0,7.413-7.945,7.855-7.945,7.855"></path><path fill="none" stroke="#191831" stroke-width="2" stroke-linecap="round" stroke-linejoin="round" d="M37.196,13.864 c0,0-1.733-12.864-13.269-12.864C10.497,1,10.165,14.895,10.165,14.895"></path><path fill="none" stroke="#191831" stroke-width="2" stroke-linecap="round" stroke-linejoin="round" d="M2.785,25.102 c0,0-1.785-1.93-1.785-5.286C1,9.342,11.178,9.902,11.178,9.902"></path><line fill="none" stroke="#191831" stroke-width="2" stroke-linecap="round" stroke-linejoin="round" x1="20.038" y1="13.066" x2="27.95" y2="13.066"></line><line fill="none" stroke="#191831" stroke-width="2" stroke-linecap="round" stroke-linejoin="round" x1="24.127" y1="17.154" x2="24.127" y2="9.243"></line></svg>