<?xml version="1.0" encoding="utf-8"?>
<!-- Generator: Adobe Illustrator 15.1.0, SVG Export Plug-In . SVG Version: 6.00 Build 0)  -->
<!DOCTYPE svg PUBLIC "-//W3C//DTD SVG 1.1//EN" "http://www.w3.org/Graphics/SVG/1.1/DTD/svg11.dtd">
<svg version="1.1" id="Layer_1" xmlns="http://www.w3.org/2000/svg" xmlns:xlink="http://www.w3.org/1999/xlink" x="0px" y="0px"
	 width="16px" height="16px" viewBox="0 0 16 16" enable-background="new 0 0 16 16" xml:space="preserve">
<path fill="#E52A23" d="M-25.376,12.021l6.486-6.487c0.221-0.22,0.221-0.578,0-0.798l-0.799-0.797c-0.219-0.22-0.576-0.22-0.797,0
	l-5.29,5.29l-2.469-2.47c-0.22-0.221-0.578-0.221-0.797,0l-0.798,0.797c-0.22,0.22-0.22,0.578,0,0.798l3.666,3.667
	C-25.954,12.24-25.596,12.24-25.376,12.021z M-16.406,7.979c0,4.396-3.562,7.958-7.958,7.958c-4.395,0-7.958-3.562-7.958-7.958
	c0-4.395,3.563-7.958,7.958-7.958C-19.969,0.021-16.406,3.584-16.406,7.979z"/>
<path fill="#E52A23" d="M41.453,15.792H29.046c-0.935,0-1.692-0.758-1.692-1.692V1.692C27.354,0.758,28.111,0,29.046,0h12.407
	c0.936,0,1.693,0.758,1.693,1.692V14.1C43.146,15.034,42.389,15.792,41.453,15.792z"/>
<g>
	<path fill="#E52C24" d="M2.629,8.855V7.144c0-0.282,0.231-0.514,0.514-0.514h4.963V3.763c0-0.458,0.552-0.685,0.877-0.364
		l4.237,4.236c0.2,0.201,0.2,0.526,0,0.728l-4.237,4.236c-0.325,0.325-0.877,0.094-0.877-0.363V9.368H3.143
		C2.861,9.368,2.629,9.137,2.629,8.855z"/>
</g>
</svg>
