<svg xmlns="http://www.w3.org/2000/svg" xmlns:xlink="http://www.w3.org/1999/xlink" id="Layer_1" x="0px" y="0px" width="20px" height="20px" viewBox="0 0 20 20" xml:space="preserve"><path fill="#FFFFFF" d="M5.167,18.75H1.539V7.066h3.628V18.75z M3.351,5.473c-1.16,0-2.101-0.961-2.101-2.121 c0-1.161,0.941-2.102,2.102-2.102c1.16,0.001,2.101,0.941,2.101,2.102S4.511,5.473,3.351,5.473z M18.746,18.75h-3.619v-5.688 c0-1.355-0.027-3.095-1.887-3.095c-1.887,0-2.176,1.474-2.176,2.996v5.785H7.44V7.066h3.48V8.66h0.051 c0.484-0.918,1.668-1.887,3.434-1.887c3.673,0,4.347,2.418,4.347,5.559v6.418H18.746z"></path></svg>