<svg xmlns="http://www.w3.org/2000/svg" xmlns:xlink="http://www.w3.org/1999/xlink" id="Layer_1" x="0px" y="0px" width="20px" height="20px" viewBox="0 0 20 20" xml:space="preserve"><path fill="#FFFFFF" d="M16.799,6.514c0.012,0.151,0.012,0.304,0.012,0.456c0,4.637-3.531,9.981-9.982,9.981 c-1.986,0-3.834-0.574-5.387-1.574c0.281,0.033,0.553,0.043,0.848,0.043c1.639,0,3.148-0.553,4.354-1.498 c-1.541-0.033-2.834-1.043-3.279-2.434c0.217,0.033,0.434,0.055,0.662,0.055c0.316,0,0.631-0.043,0.924-0.121 C3.343,11.098,2.138,9.686,2.138,7.98V7.937c0.465,0.261,1.01,0.424,1.586,0.445C2.779,7.752,2.16,6.676,2.16,5.459 c0-0.651,0.174-1.249,0.479-1.77c1.727,2.129,4.322,3.52,7.232,3.671C9.818,7.1,9.785,6.828,9.785,6.556 c0-1.934,1.564-3.508,3.509-3.508c1.011,0,1.922,0.423,2.562,1.107c0.793-0.152,1.554-0.445,2.228-0.848 c-0.263,0.815-0.813,1.499-1.541,1.934c0.705-0.076,1.39-0.271,2.021-0.543C18.08,5.395,17.482,6.014,16.799,6.514L16.799,6.514z"></path></svg>