<svg xmlns="http://www.w3.org/2000/svg" xmlns:xlink="http://www.w3.org/1999/xlink" id="Layer_1" x="0px" y="0px" width="215px" height="49.5px" viewBox="0 0 215 49.5" xml:space="preserve"><g>	<g>		<defs>			<path id="SVGID_1_" d="M55.267,23.762c0.623-5.405-2.476-10.559-2.476-10.559c1.94,14.275-3.233,21.493-3.233,21.493    C51.712,32.488,54.644,29.166,55.267,23.762 M6.975,34.696c0,0-5.171-7.217-3.233-21.493c0,0-3.097,5.154-2.475,10.559    C1.89,29.166,4.821,32.488,6.975,34.696 M49.182,17.782c-0.47-3.134-0.384-5.339-0.525-5.339c-0.004,0-0.008,0.002-0.015,0.006    c-0.96,0.852-1.023,3.393-0.43,7.272c0.593,3.878-0.593,8.026-0.593,8.026C48.965,25.809,49.666,21.015,49.182,17.782     M7.892,12.45c-0.005-0.004-0.01-0.006-0.015-0.006c-0.141,0-0.055,2.205-0.525,5.339c-0.483,3.232,0.216,8.026,1.562,9.966    c0,0-1.185-4.148-0.592-8.026C8.914,15.843,8.852,13.301,7.892,12.45 M47.242,14.173c0-11.636-10.236-12.39-10.236-12.39    C45.033,5.123,47.242,14.173,47.242,14.173 M9.291,14.173c0,0,2.209-9.05,10.235-12.39C19.526,1.783,9.291,2.538,9.291,14.173     M23.692,42.705c-0.826,1.365,0.395,4.597,0.395,4.597c-2.623-3.375-1.509-6.716,0.61-7.972c2.119-1.257,1.939-3.771,1.939-3.771    C28.217,40.048,24.519,41.341,23.692,42.705 M34.044,17.567c0,0-0.204,0.132-0.739,0.132c-0.267,0-0.618-0.033-1.066-0.132    c-1.347-0.296-1.805-1.912-1.805-1.912S32.994,16.085,34.044,17.567 M12.631,27.209C10.37,18.375,13.439,7.278,24.806,1.083    c0,0-6.087,0.809-11.528,7.918c-5.44,7.111-5.812,24.564,5.094,30.867c0,0-7.249-2.154-11.073-13.09    C3.473,15.843,8.861,6.793,8.861,6.793S3.312,12.18,4.389,22.469c1.078,10.289,5.603,16.376,12.713,20.738    c0,0-9.535-3.124-15.568-14.705c0,0,2.545,11.904,12.016,16.32c5.926,2.764,9.392,3.445,11.973,3.594    c-0.663-0.92-1.417-2.389-1.004-3.952c0.682-2.586,3.807-3.447,3.555-6.248c-0.251-2.802-1.148-3.484-1.257-4.705    c-0.107-1.222,0.216-3.089,0.216-3.089s0.179,3.017,1.616,4.776c1.437,1.759,2.406,2.801,2.729,4.704    c0.323,1.904-0.791,3.34-0.791,3.34s1.617-0.539,1.796-2.837c0.18-2.299-0.719-3.915-0.719-3.915s2.514,1.221,2.658,5.854    c0.075,2.425-1.09,4.525-2.218,5.978c2.464-0.278,5.75-1.111,10.879-3.501c9.47-4.416,12.016-16.32,12.016-16.32    c-6.033,11.581-15.568,14.705-15.568,14.705c7.111-4.362,11.636-10.45,12.712-20.738c1.078-10.289-4.471-15.676-4.471-15.676    s5.387,9.05,1.562,19.985c-3.824,10.936-11.073,13.09-11.073,13.09c10.905-6.302,10.535-23.756,5.095-30.867    c-5.442-7.11-11.529-7.918-11.529-7.918c11.367,6.195,14.436,17.292,12.174,26.126c-1.404,5.48-5.004,8.741-7.536,10.429    c-0.172-1.105-0.525-2.593-1.245-4.315C33.559,29.58,29.735,22.2,29.735,22.2s0.727-0.135,1.481-0.647    c0.753-0.512,3.933-1.454,4.848-1.157c0.917,0.296,1.418,1.912,1.418,1.912s1.078-3.305,0.216-4.633    c-0.862-1.329-4.992-3.95-9.661-5.231c-4.669-1.282-7.074,0.168-7.074,0.168c3.482-0.718,7.648,1.562,7.648,1.562    c-8.438-1.454-12.066,4.435-12.066,4.435c4.166-4.632,10.127-3.232,10.127-3.232s-3.627,1.042-4.381,3.699    c-0.754,2.658-0.502,5.998-0.502,5.998c0.431-0.683,1.507-3.196,1.507-3.196c0.108,0.898-0.467,2.909-0.575,4.812    c-0.108,1.904,0,5.172,0,5.172l1.653-3.484c0.089,4.309-1.859,8.785-2.557,10.244C19.58,37.448,14.387,34.065,12.631,27.209"></path>		</defs>					<linearGradient id="SVGID_2_" gradientUnits="userSpaceOnUse" x1="-883.4585" y1="24.75" x2="-829.2939" y2="24.75" gradientTransform="matrix(-1 0 0 1 -828.1094 0)">			<stop offset="0" style="stop-color:#E52822"></stop>			<stop offset="0.1224" style="stop-color:#E95723"></stop>			<stop offset="0.2788" style="stop-color:#F08222"></stop>			<stop offset="0.4345" style="stop-color:#F5A31E"></stop>			<stop offset="0.5865" style="stop-color:#FABB18"></stop>			<stop offset="0.7338" style="stop-color:#FDCA10"></stop>			<stop offset="0.874" style="stop-color:#FFD407"></stop>			<stop offset="1" style="stop-color:#FFD703"></stop>		</linearGradient>		<use xlink:href="#SVGID_1_" fill="url(#SVGID_2_)"></use>		<clipPath id="SVGID_3_">			<use xlink:href="#SVGID_1_"></use>		</clipPath>					<linearGradient id="SVGID_4_" gradientUnits="userSpaceOnUse" x1="-491.2349" y1="260.4902" x2="-491.0239" y2="260.4902" gradientTransform="matrix(0 -224.3464 224.3464 0 -58411.625 -110158.5)">			<stop offset="0" style="stop-color:#E52822"></stop>			<stop offset="0.1224" style="stop-color:#E95723"></stop>			<stop offset="0.2788" style="stop-color:#F08222"></stop>			<stop offset="0.4345" style="stop-color:#F5A31E"></stop>			<stop offset="0.5865" style="stop-color:#FABB18"></stop>			<stop offset="0.7338" style="stop-color:#FDCA10"></stop>			<stop offset="0.874" style="stop-color:#FFD407"></stop>			<stop offset="1" style="stop-color:#FFD703"></stop>		</linearGradient>		<rect x="0.645" y="1.083" clip-path="url(#SVGID_3_)" fill="url(#SVGID_4_)" width="55.244" height="47.334"></rect>	</g>	<g>		<path fill="#010202" d="M86.699,14.064c0.447,0.225,0.708,0.57,0.778,1.039c0.071,0.469-0.045,0.896-0.35,1.283   c-0.226,0.306-0.516,0.479-0.872,0.519c-0.357,0.041-0.708-0.03-1.054-0.213c-0.591-0.306-1.211-0.55-1.864-0.734   c-0.651-0.183-1.344-0.275-2.077-0.275c-1.161,0-2.204,0.189-3.13,0.565c-0.928,0.377-1.727,0.917-2.398,1.62   c-0.673,0.703-1.188,1.533-1.543,2.489c-0.356,0.958-0.535,2.016-0.535,3.177c0,1.283,0.193,2.418,0.58,3.406   c0.387,0.989,0.921,1.823,1.604,2.505c0.683,0.683,1.486,1.191,2.415,1.527c0.926,0.336,1.928,0.504,3.008,0.504   c0.692,0,1.369-0.081,2.031-0.244s1.288-0.408,1.878-0.733c0.367-0.184,0.728-0.25,1.085-0.199   c0.356,0.051,0.646,0.229,0.872,0.534c0.345,0.428,0.473,0.861,0.381,1.298c-0.091,0.438-0.352,0.769-0.779,0.993   c-0.51,0.286-1.07,0.53-1.681,0.733c-0.611,0.204-1.231,0.366-1.862,0.489c-0.632,0.123-1.273,0.184-1.925,0.184   c-1.465,0-2.851-0.245-4.155-0.734c-1.302-0.488-2.463-1.201-3.482-2.137c-1.019-0.937-1.817-2.087-2.397-3.452   c-0.581-1.364-0.871-2.922-0.871-4.674c0-1.568,0.27-3.019,0.81-4.353c0.539-1.333,1.302-2.484,2.291-3.452   c0.987-0.968,2.143-1.721,3.467-2.261c1.324-0.54,2.769-0.809,4.337-0.809c0.977,0,1.929,0.122,2.857,0.366   C85.045,13.27,85.904,13.616,86.699,14.064z"></path>		<path fill="#010202" d="M93.908,32.667c0,0.447-0.149,0.819-0.443,1.115c-0.295,0.295-0.658,0.443-1.084,0.443   c-0.427,0-0.79-0.147-1.085-0.443c-0.295-0.295-0.442-0.667-0.442-1.115V13.178c0-0.447,0.152-0.819,0.458-1.114   c0.305-0.295,0.671-0.443,1.1-0.443c0.448,0,0.81,0.148,1.085,0.443c0.274,0.295,0.412,0.667,0.412,1.114V32.667z"></path>		<path fill="#010202" d="M113.55,26.191c0,1.629-0.357,3.07-1.07,4.322c-0.712,1.252-1.68,2.236-2.901,2.948   s-2.597,1.069-4.124,1.069c-1.528,0-2.901-0.357-4.124-1.069c-1.222-0.712-2.195-1.696-2.918-2.948   c-0.722-1.252-1.084-2.693-1.084-4.322c0-1.65,0.362-3.101,1.084-4.353c0.723-1.253,1.696-2.241,2.918-2.963   c1.222-0.723,2.595-1.084,4.124-1.084c1.527,0,2.902,0.361,4.124,1.084s2.189,1.71,2.901,2.963   C113.192,23.091,113.55,24.542,113.55,26.191z M110.495,26.191c0-1.12-0.226-2.093-0.673-2.917   c-0.447-0.825-1.054-1.477-1.817-1.955c-0.763-0.478-1.615-0.718-2.551-0.718c-0.937,0-1.792,0.24-2.566,0.718   c-0.774,0.479-1.386,1.13-1.833,1.955c-0.449,0.824-0.673,1.797-0.673,2.917c0,1.079,0.224,2.037,0.673,2.872   c0.447,0.835,1.058,1.487,1.833,1.955c0.773,0.468,1.629,0.703,2.566,0.703c0.936,0,1.788-0.234,2.551-0.703   c0.764-0.468,1.37-1.12,1.817-1.955S110.495,27.271,110.495,26.191z"></path>		<path fill="#010202" d="M128.976,18.158c0.426,0,0.787,0.147,1.083,0.442c0.295,0.296,0.443,0.668,0.443,1.115v8.034   c0,2.118-0.591,3.772-1.771,4.963c-1.182,1.192-2.852,1.787-5.01,1.787c-2.139,0-3.792-0.595-4.964-1.787   c-1.171-1.191-1.756-2.845-1.756-4.963v-8.034c0-0.447,0.143-0.819,0.429-1.115c0.284-0.295,0.65-0.442,1.098-0.442   c0.428,0,0.789,0.147,1.085,0.442c0.295,0.296,0.443,0.668,0.443,1.115v8.034c0,1.324,0.31,2.312,0.932,2.963   c0.62,0.652,1.532,0.978,2.733,0.978c1.223,0,2.149-0.326,2.779-0.978c0.632-0.651,0.947-1.639,0.947-2.963v-8.034   c0-0.447,0.143-0.819,0.429-1.115C128.16,18.305,128.526,18.158,128.976,18.158z"></path>		<path fill="#010202" d="M147.915,11.621c0.446,0,0.812,0.143,1.098,0.428c0.286,0.286,0.429,0.662,0.429,1.13v19.489   c0,0.447-0.143,0.819-0.429,1.115c-0.285,0.295-0.651,0.443-1.098,0.443c-0.429,0-0.791-0.147-1.086-0.443   s-0.442-0.667-0.442-1.115v-2.2l0.641,0.031c0,0.366-0.146,0.778-0.442,1.237c-0.295,0.458-0.698,0.901-1.207,1.329   s-1.11,0.779-1.803,1.054c-0.692,0.275-1.435,0.413-2.229,0.413c-1.405,0-2.668-0.362-3.787-1.084   c-1.12-0.723-2.007-1.711-2.658-2.964c-0.651-1.252-0.977-2.692-0.977-4.322s0.325-3.07,0.977-4.322   c0.651-1.253,1.532-2.241,2.643-2.963c1.109-0.723,2.348-1.084,3.711-1.084c0.855,0,1.654,0.142,2.398,0.427   c0.743,0.285,1.391,0.652,1.94,1.1c0.549,0.448,0.977,0.922,1.282,1.421c0.307,0.499,0.457,0.972,0.457,1.42l-0.945,0.092v-9.073   c0-0.447,0.147-0.819,0.442-1.114S147.486,11.621,147.915,11.621z M141.684,31.721c0.977,0,1.827-0.245,2.549-0.733   c0.723-0.489,1.288-1.151,1.696-1.986c0.406-0.834,0.61-1.782,0.61-2.84c0-1.059-0.204-2.006-0.61-2.841   c-0.408-0.834-0.978-1.496-1.711-1.985c-0.733-0.489-1.578-0.733-2.534-0.733c-0.938,0-1.768,0.244-2.491,0.733   c-0.723,0.489-1.294,1.151-1.711,1.985c-0.418,0.835-0.626,1.782-0.626,2.841c0,1.059,0.208,2.006,0.626,2.84   c0.417,0.835,0.988,1.498,1.711,1.986C139.916,31.476,140.746,31.721,141.684,31.721z"></path>		<path fill="#010202" d="M155.887,34.225c-0.489,0-0.918-0.147-1.284-0.443s-0.549-0.667-0.549-1.115V14.4   c0-0.448,0.152-0.819,0.457-1.114c0.307-0.296,0.673-0.444,1.101-0.444h8.613c1.101,0,2.108,0.27,3.024,0.81   c0.916,0.54,1.655,1.283,2.214,2.229c0.561,0.948,0.841,2.032,0.841,3.253c0,0.815-0.164,1.594-0.488,2.336   c-0.326,0.744-0.764,1.4-1.313,1.97c-0.55,0.571-1.172,0.999-1.863,1.283l-0.338-0.58c0.633,0.224,1.183,0.545,1.651,0.962   c0.468,0.418,0.84,0.906,1.114,1.466c0.275,0.561,0.423,1.197,0.443,1.91c0.061,0.631,0.116,1.156,0.168,1.573   c0.051,0.417,0.127,0.758,0.229,1.023c0.102,0.265,0.284,0.469,0.551,0.611c0.366,0.204,0.594,0.509,0.686,0.917   c0.093,0.407,0.005,0.774-0.26,1.1c-0.183,0.244-0.411,0.402-0.687,0.473c-0.275,0.072-0.556,0.082-0.84,0.031   c-0.286-0.05-0.53-0.127-0.732-0.229c-0.327-0.203-0.658-0.494-0.994-0.871c-0.335-0.377-0.605-0.902-0.81-1.573   c-0.204-0.672-0.305-1.558-0.305-2.658c0-0.509-0.082-0.947-0.244-1.313c-0.165-0.367-0.387-0.667-0.673-0.901   c-0.285-0.234-0.62-0.408-1.007-0.52c-0.388-0.111-0.815-0.168-1.284-0.168h-6.476l0.428-0.61v7.3   c0,0.447-0.122,0.819-0.366,1.115S156.312,34.225,155.887,34.225z M156.863,23.32h7.301c0.469-0.019,0.921-0.208,1.358-0.565   c0.438-0.355,0.796-0.839,1.07-1.451c0.273-0.611,0.413-1.303,0.413-2.077c0-0.978-0.29-1.797-0.87-2.46   c-0.582-0.661-1.27-0.992-2.063-0.992h-7.146l0.335-0.794v8.98L156.863,23.32z"></path>		<path fill="#010202" d="M194.038,23.534c0,1.548-0.254,2.989-0.763,4.323c-0.511,1.333-1.227,2.5-2.153,3.498   c-0.928,0.997-2.022,1.776-3.284,2.336c-1.263,0.56-2.648,0.841-4.154,0.841c-1.487,0-2.861-0.281-4.124-0.841   c-1.264-0.56-2.357-1.339-3.284-2.336c-0.927-0.998-1.64-2.165-2.138-3.498c-0.499-1.333-0.748-2.775-0.748-4.323   c0-1.547,0.249-2.988,0.748-4.322c0.498-1.334,1.211-2.5,2.138-3.498s2.021-1.776,3.284-2.337c1.263-0.56,2.637-0.84,4.124-0.84   c1.506,0,2.892,0.28,4.154,0.84c1.262,0.561,2.356,1.339,3.284,2.337c0.927,0.998,1.643,2.164,2.153,3.498   C193.784,20.546,194.038,21.986,194.038,23.534z M190.74,23.534c0-1.506-0.302-2.86-0.902-4.062   c-0.6-1.201-1.43-2.148-2.489-2.841c-1.06-0.692-2.281-1.039-3.665-1.039c-1.365,0-2.575,0.347-3.635,1.039   c-1.06,0.693-1.885,1.634-2.475,2.826c-0.591,1.191-0.885,2.551-0.885,4.078c0,1.508,0.294,2.862,0.885,4.062   c0.59,1.202,1.415,2.149,2.475,2.841c1.06,0.692,2.27,1.039,3.635,1.039c1.384,0,2.605-0.346,3.665-1.039   c1.06-0.692,1.89-1.64,2.489-2.841C190.438,26.396,190.74,25.042,190.74,23.534z"></path>		<path fill="#010202" d="M212.978,14.064c0.447,0.225,0.708,0.57,0.778,1.039c0.071,0.469-0.045,0.896-0.352,1.283   c-0.225,0.306-0.515,0.479-0.87,0.519c-0.357,0.041-0.708-0.03-1.054-0.213c-0.592-0.306-1.211-0.55-1.862-0.734   c-0.653-0.183-1.345-0.275-2.078-0.275c-1.161,0-2.204,0.189-3.131,0.565c-0.928,0.377-1.727,0.917-2.397,1.62   c-0.673,0.703-1.188,1.533-1.543,2.489c-0.357,0.958-0.535,2.016-0.535,3.177c0,1.283,0.193,2.418,0.58,3.406   c0.387,0.989,0.922,1.823,1.604,2.505c0.683,0.683,1.486,1.191,2.414,1.527c0.927,0.336,1.929,0.504,3.009,0.504   c0.692,0,1.369-0.081,2.031-0.244s1.287-0.408,1.878-0.733c0.366-0.184,0.728-0.25,1.085-0.199   c0.355,0.051,0.646,0.229,0.87,0.534c0.347,0.428,0.475,0.861,0.383,1.298c-0.093,0.438-0.352,0.769-0.778,0.993   c-0.511,0.286-1.069,0.53-1.682,0.733c-0.61,0.204-1.231,0.366-1.862,0.489c-0.633,0.123-1.273,0.184-1.925,0.184   c-1.467,0-2.852-0.245-4.155-0.734c-1.302-0.488-2.463-1.201-3.481-2.137c-1.019-0.937-1.818-2.087-2.398-3.452   c-0.579-1.364-0.869-2.922-0.869-4.674c0-1.568,0.27-3.019,0.809-4.353s1.303-2.484,2.291-3.452   c0.986-0.968,2.143-1.721,3.467-2.261c1.324-0.54,2.771-0.809,4.338-0.809c0.979,0,1.929,0.122,2.856,0.366   C211.323,13.27,212.184,13.616,212.978,14.064z"></path>	</g></g></svg>